
<svg width="155" height="29" viewBox="0 0 155 29" fill="none" xmlns="http://www.w3.org/2000/svg">
<path d="M0.0859375 2H6.34375L12.9531 18.125H13.2344L19.8437 2H26.1016V26H21.1797V10.3789H20.9805L14.7695 25.8828H11.418L5.20703 10.3203H5.00781V26H0.0859375V2ZM32.6813 26.3398C31.5329 26.3398 30.5094 26.1406 29.611 25.7422C28.7125 25.3359 28.0016 24.7383 27.4782 23.9492C26.9625 23.1523 26.7047 22.1602 26.7047 20.9727C26.7047 19.9727 26.8883 19.1328 27.2555 18.4531C27.6227 17.7734 28.1227 17.2266 28.7555 16.8125C29.3883 16.3984 30.1071 16.0859 30.9118 15.875C31.7243 15.6641 32.5758 15.5156 33.4664 15.4297C34.5133 15.3203 35.3571 15.2187 35.9977 15.125C36.6383 15.0234 37.1032 14.875 37.3922 14.6797C37.6813 14.4844 37.8258 14.1953 37.8258 13.8125V13.7422C37.8258 13 37.5914 12.4258 37.1227 12.0195C36.6618 11.6133 36.0055 11.4102 35.1539 11.4102C34.2555 11.4102 33.5407 11.6094 33.0094 12.0078C32.4782 12.3984 32.1266 12.8906 31.9547 13.4844L27.3375 13.1094C27.5719 12.0156 28.0329 11.0703 28.7204 10.2734C29.4079 9.46875 30.2946 8.85156 31.3805 8.42187C32.4743 7.98437 33.7399 7.76563 35.1774 7.76563C36.1774 7.76563 37.1344 7.88281 38.0485 8.11719C38.9704 8.35156 39.7868 8.71484 40.4977 9.20703C41.2164 9.69922 41.7829 10.332 42.1969 11.1055C42.611 11.8711 42.818 12.7891 42.818 13.8594V26H38.0836V23.5039H37.943C37.6539 24.0664 37.2672 24.5625 36.7829 24.9922C36.2985 25.4141 35.7164 25.7461 35.0368 25.9883C34.3571 26.2227 33.5719 26.3398 32.6813 26.3398ZM34.111 22.8945C34.8454 22.8945 35.4938 22.75 36.0563 22.4609C36.6188 22.1641 37.0602 21.7656 37.3805 21.2656C37.7008 20.7656 37.861 20.1992 37.861 19.5664V17.6563C37.7047 17.7578 37.4899 17.8516 37.2164 17.9375C36.9508 18.0156 36.65 18.0898 36.3141 18.1602C35.9782 18.2227 35.6422 18.2812 35.3063 18.3359C34.9704 18.3828 34.6657 18.4258 34.3922 18.4648C33.8063 18.5508 33.2946 18.6875 32.8571 18.875C32.4196 19.0625 32.0797 19.3164 31.8375 19.6367C31.5954 19.9492 31.4743 20.3398 31.4743 20.8086C31.4743 21.4883 31.7204 22.0078 32.2125 22.3672C32.7125 22.7187 33.3454 22.8945 34.111 22.8945ZM53.7307 8V11.75H42.6214V8H53.7307ZM45.1643 26V6.69922C45.1643 5.39453 45.4182 4.3125 45.9261 3.45312C46.4417 2.59375 47.1448 1.94922 48.0354 1.51953C48.9261 1.08984 49.9378 0.874998 51.0706 0.874998C51.8362 0.874998 52.5354 0.933593 53.1682 1.05078C53.8089 1.16797 54.2854 1.27344 54.5979 1.36719L53.7073 5.11719C53.512 5.05469 53.2698 4.99609 52.9807 4.9414C52.6995 4.88672 52.4104 4.85938 52.1136 4.85938C51.3792 4.85938 50.8675 5.03125 50.5784 5.375C50.2893 5.71094 50.1448 6.18359 50.1448 6.79297V26H45.1643ZM57.6913 26L52.7929 8H57.8437L60.6327 20.0937H60.7968L63.703 8H68.6601L71.6132 20.0234H71.7655L74.5077 8H79.5468L74.6601 26H69.3749L66.2812 14.6797H66.0585L62.9648 26H57.6913ZM79.6636 26V2H84.6558V11.0234H84.8082C85.0269 10.5391 85.3433 10.0469 85.7574 9.54687C86.1793 9.03906 86.7261 8.61719 87.398 8.28125C88.0777 7.9375 88.9214 7.76563 89.9293 7.76563C91.2418 7.76563 92.4527 8.10938 93.5621 8.79688C94.6714 9.47656 95.5582 10.5039 96.2222 11.8789C96.8863 13.2461 97.2183 14.9609 97.2183 17.0234C97.2183 19.0312 96.8941 20.7266 96.2457 22.1094C95.605 23.4844 94.73 24.5273 93.6207 25.2383C92.5191 25.9414 91.2847 26.293 89.9175 26.293C88.9488 26.293 88.1246 26.1328 87.4449 25.8125C86.773 25.4922 86.2222 25.0898 85.7925 24.6055C85.3629 24.1133 85.0347 23.6172 84.8082 23.1172H84.5855V26H79.6636ZM84.5504 17C84.5504 18.0703 84.6988 19.0039 84.9957 19.8008C85.2925 20.5977 85.7222 21.2187 86.2847 21.6641C86.8472 22.1016 87.5308 22.3203 88.3355 22.3203C89.148 22.3203 89.8355 22.0977 90.398 21.6523C90.9605 21.1992 91.3863 20.5742 91.6754 19.7773C91.9722 18.9727 92.1207 18.0469 92.1207 17C92.1207 15.9609 91.9761 15.0469 91.6871 14.2578C91.398 13.4687 90.9722 12.8516 90.4097 12.4062C89.8472 11.9609 89.1558 11.7383 88.3355 11.7383C87.523 11.7383 86.8355 11.9531 86.273 12.3828C85.7183 12.8125 85.2925 13.4219 84.9957 14.2109C84.6988 15 84.5504 15.9297 84.5504 17ZM102.902 15.5938V26H97.9094V2H102.761V11.1758H102.972C103.378 10.1133 104.034 9.28125 104.941 8.67969C105.847 8.07031 106.984 7.76563 108.351 7.76563C109.601 7.76563 110.691 8.03906 111.62 8.58594C112.558 9.125 113.284 9.90234 113.8 10.918C114.323 11.9258 114.581 13.1328 114.573 14.5391V26H109.581V15.4297C109.589 14.3203 109.308 13.457 108.738 12.8398C108.175 12.2227 107.386 11.9141 106.37 11.9141C105.691 11.9141 105.089 12.0586 104.566 12.3477C104.05 12.6367 103.644 13.0586 103.347 13.6133C103.058 14.1602 102.909 14.8203 102.902 15.5938ZM121.632 23.8026L121.637 21.2621H121.945L124.391 18.3636H126.822L123.536 22.2017H123.034L121.632 23.8026ZM119.713 26V15.8182H121.831V26H119.713ZM124.486 26L122.238 22.674L123.65 21.1776L126.966 26H124.486ZM128.919 26.1442C128.432 26.1442 127.997 26.0597 127.616 25.8906C127.235 25.7183 126.934 25.4647 126.711 25.13C126.493 24.7919 126.383 24.371 126.383 23.8672C126.383 23.4429 126.461 23.0866 126.617 22.7983C126.773 22.5099 126.985 22.2779 127.253 22.1023C127.522 21.9266 127.827 21.794 128.168 21.7045C128.513 21.6151 128.874 21.5521 129.252 21.5156C129.696 21.4692 130.054 21.4261 130.326 21.3864C130.598 21.3433 130.795 21.2803 130.917 21.1974C131.04 21.1146 131.101 20.992 131.101 20.8295V20.7997C131.101 20.4848 131.002 20.2412 130.803 20.0689C130.608 19.8965 130.329 19.8104 129.968 19.8104C129.587 19.8104 129.283 19.8949 129.058 20.0639C128.833 20.2296 128.684 20.4384 128.611 20.6903L126.652 20.5312C126.751 20.0672 126.947 19.6662 127.238 19.3281C127.53 18.9867 127.906 18.7249 128.367 18.5426C128.831 18.357 129.368 18.2642 129.978 18.2642C130.402 18.2642 130.808 18.3139 131.196 18.4134C131.587 18.5128 131.933 18.6669 132.235 18.8757C132.54 19.0845 132.78 19.353 132.956 19.6811C133.131 20.0059 133.219 20.3954 133.219 20.8494V26H131.211V24.9411H131.151C131.028 25.1797 130.864 25.3902 130.659 25.5724C130.453 25.7514 130.206 25.8923 129.918 25.995C129.63 26.0945 129.297 26.1442 128.919 26.1442ZM129.525 24.6825C129.837 24.6825 130.112 24.6212 130.351 24.4986C130.589 24.3726 130.777 24.2036 130.912 23.9915C131.048 23.7794 131.116 23.5391 131.116 23.2706V22.4602C131.05 22.5033 130.959 22.5431 130.843 22.5795C130.73 22.6127 130.603 22.6442 130.46 22.674C130.317 22.7005 130.175 22.7254 130.032 22.7486C129.89 22.7685 129.761 22.7867 129.645 22.8033C129.396 22.8397 129.179 22.8977 128.993 22.9773C128.808 23.0568 128.664 23.1645 128.561 23.3004C128.458 23.433 128.407 23.5987 128.407 23.7976C128.407 24.0859 128.511 24.3063 128.72 24.4588C128.932 24.608 129.201 24.6825 129.525 24.6825ZM135.86 21.5852V26H133.742V18.3636H135.761V19.7109H135.85C136.019 19.2668 136.303 18.9155 136.7 18.657C137.098 18.3951 137.58 18.2642 138.147 18.2642C138.677 18.2642 139.14 18.3802 139.534 18.6122C139.929 18.8442 140.235 19.1757 140.454 19.6065C140.673 20.0341 140.782 20.5445 140.782 21.1378V26H138.664V21.5156C138.668 21.0483 138.548 20.6837 138.306 20.4219C138.064 20.1567 137.731 20.0241 137.307 20.0241C137.022 20.0241 136.77 20.0855 136.551 20.2081C136.336 20.3307 136.167 20.5097 136.044 20.745C135.925 20.977 135.864 21.2571 135.86 21.5852ZM142.365 28.8636C142.097 28.8636 141.845 28.8421 141.61 28.799C141.378 28.7592 141.186 28.7079 141.033 28.6449L141.51 27.0639C141.759 27.1402 141.983 27.1816 142.181 27.1882C142.384 27.1948 142.558 27.1484 142.704 27.049C142.853 26.9496 142.974 26.7805 143.066 26.5419L143.191 26.2188L140.451 18.3636H142.679L144.26 23.9716H144.339L145.935 18.3636H148.177L145.209 26.8253C145.067 27.2363 144.873 27.5942 144.628 27.8991C144.386 28.2074 144.079 28.4444 143.708 28.6101C143.337 28.7791 142.889 28.8636 142.365 28.8636ZM151.375 26.1491C150.59 26.1491 149.913 25.9901 149.347 25.6719C148.783 25.3504 148.349 24.8963 148.044 24.3097C147.739 23.7197 147.587 23.022 147.587 22.2166C147.587 21.4311 147.739 20.7417 148.044 20.1484C148.349 19.5552 148.778 19.0928 149.332 18.7614C149.889 18.4299 150.541 18.2642 151.291 18.2642C151.794 18.2642 152.263 18.3454 152.697 18.5078C153.135 18.6669 153.516 18.9072 153.841 19.2287C154.169 19.5502 154.424 19.9545 154.607 20.4418C154.789 20.9257 154.88 21.4924 154.88 22.142V22.7237H148.432V21.4112H152.886C152.886 21.1063 152.82 20.8362 152.688 20.6009C152.555 20.3655 152.371 20.1816 152.136 20.049C151.904 19.9131 151.634 19.8452 151.325 19.8452C151.004 19.8452 150.719 19.9197 150.47 20.0689C150.225 20.2147 150.033 20.4119 149.894 20.6605C149.754 20.9058 149.683 21.1792 149.68 21.4808V22.7287C149.68 23.1065 149.749 23.433 149.889 23.7081C150.031 23.9832 150.232 24.1953 150.49 24.3445C150.749 24.4936 151.055 24.5682 151.41 24.5682C151.645 24.5682 151.861 24.535 152.056 24.4688C152.252 24.4025 152.419 24.303 152.558 24.1705C152.697 24.0379 152.804 23.8755 152.876 23.6832L154.835 23.8125C154.736 24.2831 154.532 24.6941 154.224 25.0455C153.919 25.3935 153.524 25.6652 153.041 25.8608C152.56 26.053 152.005 26.1491 151.375 26.1491Z" fill="white"/>
</svg>
